<mxfile host="app.diagrams.net" modified="2023-06-02T02:34:50.597Z" agent="Mozilla/5.0 (Windows NT 10.0; Win64; x64) AppleWebKit/537.36 (KHTML, like Gecko) Chrome/113.0.0.0 Safari/537.36 Edg/113.0.1774.57" version="21.3.2" etag="9WeOC1Tcv2SH4T6qIu1V" type="github">
  <diagram name="페이지-1" id="z_mzLPyDFivuFzImLvLE">
    <mxGraphModel>
      <root>
        <mxCell id="0" />
        <mxCell id="1" parent="0" />
      </root>
    </mxGraphModel>
  </diagram>
</mxfile>
